<?xml version="1.0" encoding="UTF-8"?>
<svg version="1.1" xmlns="http://www.w3.org/2000/svg" width="2059" height="1544">
<path d="M0 0 C2.40803528 2.0405426 2.40803528 2.0405426 5.11645508 4.76000977 C5.6129808 5.25449112 6.10950653 5.74897247 6.62107849 6.25843811 C8.26124653 7.89559806 9.89041289 9.5432563 11.51953125 11.19140625 C12.66231304 12.33724828 13.80568883 13.48249817 14.94963074 14.62718201 C17.34903179 17.0311878 19.74344 19.44001898 22.1340332 21.8527832 C25.1800718 24.92694437 28.23456861 27.9925147 31.29245472 31.05488682 C34.22546573 33.99309113 37.15379458 36.93594522 40.08203125 39.87890625 C40.63310862 40.43186434 41.18418598 40.98482243 41.75196266 41.55453682 C47.20395756 47.03055452 52.58568209 52.52146967 57.61479187 58.3948822 C59.30510171 60.35353834 61.09035594 62.18923296 62.9375 64 C63.60523438 64.66 64.27296875 65.32 64.9609375 66 C65.63382813 66.66 66.30671875 67.32 67 68 C71.66943156 72.57997885 76.14095888 77.23097153 80.41015625 82.1875 C82.50099282 84.57115643 84.72887685 86.78864325 87 89 C90.58275311 92.48847013 93.88549598 96.13257303 97.15722656 99.90771484 C100.1399835 103.29433739 103.26433922 106.54382717 106.375 109.8125 C111.40999204 115.13826853 116.19473354 120.55628487 120.76171875 126.29296875 C123.39399103 129.47650224 126.17710569 132.48606621 129 135.5 C133.3705695 140.17763527 137.53202343 144.95541115 141.54296875 149.94921875 C143.4036302 152.2595154 145.27984611 154.55097554 147.17578125 156.83203125 C163.22006663 176.14232892 179.27390177 195.91567866 192.79150391 217.10595703 C193.7111619 218.54731193 194.63631341 219.98516334 195.56396484 221.42138672 C221.63236329 261.865368 247.75882592 308.84214755 237.03515625 358.734375 C232.27578975 378.94395907 224.54337362 397.7371151 214.97802734 416.11767578 C214.03305623 417.93637956 213.10376211 419.76242758 212.17578125 421.58984375 C195.59849836 453.84667506 173.66608495 483.78064613 151 512 C150.49114258 512.63502441 149.98228516 513.27004883 149.45800781 513.92431641 C139.70703633 526.07301917 129.72239542 538.00535433 119.23046875 549.5234375 C117.3929101 551.56373905 115.58536791 553.62343326 113.78466797 555.69604492 C102.70127111 568.3672421 90.84214627 580.32043126 78.92700195 592.20336914 C76.53673893 594.58820255 74.15196242 596.97843105 71.76757812 599.36914062 C70.22167518 600.91438372 68.67546257 602.45931709 67.12890625 604.00390625 C66.4297963 604.70504044 65.73068634 605.40617462 65.01039124 606.1285553 C61.0585195 610.06188241 57.00929151 613.82312041 52.78045654 617.45765686 C50.01272343 619.85524089 47.35784636 622.37025978 44.6875 624.875 C39.89485085 629.3337948 34.97810172 633.56120791 29.87109375 637.66015625 C26.56427748 640.35509903 23.3471208 643.14252422 20.125 645.9375 C14.11535872 651.12771924 7.92451744 656.01430985 1.58691406 660.79541016 C-1.02333759 662.77679195 -3.60127484 664.79991125 -6.1875 666.8125 C-33.86746347 688.16622163 -63.40808072 708.54348282 -96.75 719.875 C-97.95366211 720.28649292 -97.95366211 720.28649292 -99.18164062 720.70629883 C-101.77150724 721.54467178 -104.37551001 722.27699275 -107 723 C-107.90556672 723.2612029 -108.81113344 723.5224058 -109.74414158 723.79152393 C-122.96941758 727.01902992 -136.51053755 726.40657569 -150.03385413 726.34819686 C-153.83935104 726.33512093 -157.64483481 726.33963404 -161.4503479 726.34190369 C-168.02756375 726.34346919 -174.60468963 726.33413613 -181.18188286 726.31719017 C-190.69113483 726.29270592 -200.20034374 726.28498531 -209.70962382 726.2812262 C-225.14148279 726.27467642 -240.57329392 726.25475545 -256.00512695 726.22631836 C-270.98689537 726.1987395 -285.96865074 726.1775247 -300.95043945 726.16479492 C-301.87545423 726.16400675 -302.800469 726.16321858 -303.75351452 726.16240653 C-308.39450108 726.15849113 -313.03548774 726.15470008 -317.67647445 726.15097082 C-356.11768311 726.11992085 -394.55883839 726.06712544 -433 726 C-432.2451245 730.38685796 -431.47893166 734.77167126 -430.7109375 739.15625 C-430.50073975 740.37860352 -430.29054199 741.60095703 -430.07397461 742.86035156 C-427.85407464 755.47171576 -424.69259253 767.74499213 -421 780 C-420.73493652 780.88059082 -420.46987305 781.76118164 -420.19677734 782.66845703 C-414.06792979 802.52284906 -405.10483581 822.07093347 -393 839 C-391.92685547 840.52560547 -391.92685547 840.52560547 -390.83203125 842.08203125 C-385.80229393 849.01683722 -380.29104034 855.36848572 -374.38085938 861.55175781 C-373.05974143 862.93734332 -371.75598229 864.33941785 -370.453125 865.7421875 C-321.0351143 917.40647141 -239.19952826 934.36903247 -170.32819009 936.0918504 C-166.39711049 936.12481834 -162.46669851 936.12885179 -158.53555298 936.12025452 C-157.02616749 936.1206917 -155.51678207 936.1215693 -154.00739706 936.12284368 C-149.90024675 936.12505983 -145.79312296 936.12110725 -141.68597603 936.11606562 C-137.24173616 936.11171953 -132.79749762 936.11321048 -128.35325623 936.1139679 C-120.66672033 936.11449051 -112.98019296 936.11137122 -105.29365921 936.10573006 C-94.18042308 936.09757936 -83.06719104 936.09499619 -71.95395224 936.09374207 C-53.92047103 936.09155714 -35.88699437 936.08491226 -17.85351562 936.07543945 C-0.34277367 936.06625084 17.16796705 936.0591771 34.67871094 936.05493164 C35.7593122 936.05466892 36.83991347 936.05440619 37.95326023 936.05413551 C43.3746892 936.05283041 48.79611819 936.05156671 54.21754718 936.05032361 C99.1450346 936.03996843 144.07251706 936.02236537 189 936 C188.59784806 935.51331061 188.19569613 935.02662123 187.78135777 934.52518368 C185.94073367 932.29668522 184.10133953 930.06717467 182.26196289 927.83764648 C181.62934792 927.0720919 180.99673294 926.30653732 180.34494781 925.51778412 C175.90365402 920.13202685 171.58422037 914.67926048 167.4375 909.0625 C166.8180249 908.22879883 166.1985498 907.39509766 165.56030273 906.53613281 C163.70120433 904.02821358 161.84987781 901.5147249 160 899 C159.44989258 898.25669434 158.89978516 897.51338867 158.33300781 896.74755859 C123.43931316 849.54031394 79.44353404 788.31169487 87.82421875 726.0378418 C96.67579999 667.24739997 136.77813973 615.3604561 173.60839844 570.69140625 C175.60618119 568.26322399 177.58181424 565.81713585 179.5625 563.375 C183.92737335 558.04634987 188.40513049 552.81844322 192.90234375 547.6015625 C194.92744119 545.25217024 196.9402473 542.8932486 198.94140625 540.5234375 C204.78856032 533.61502496 210.79415624 526.89767047 217.01708984 520.32446289 C219.89020581 517.28599686 222.70630429 514.21552576 225.44921875 511.05859375 C229.0390678 506.9279997 232.75035212 502.92295048 236.5 498.9375 C237.43779297 497.93493164 237.43779297 497.93493164 238.39453125 496.91210938 C241.38993474 493.72135349 244.41269419 490.57460476 247.53125 487.50390625 C249.93784628 485.11923104 252.19758031 482.66265221 254.40625 480.09375 C258.88801443 474.90170594 263.79326217 470.15831676 268.68359375 465.35546875 C269.75287109 464.29779297 269.75287109 464.29779297 270.84375 463.21875 C271.47474609 462.59935547 272.10574219 461.97996094 272.75585938 461.34179688 C274.61245146 459.40441314 276.3650843 457.43442696 278.11499023 455.40258789 C285.47647512 446.93845322 293.53350228 439.08320642 301.42456055 431.11547852 C303.52779362 428.98979391 305.62078609 426.85472684 307.70581055 424.71118164 C310.24018483 422.10587661 312.79120375 419.51803622 315.35511589 416.94180489 C316.32478191 415.96174024 317.28842493 414.97567754 318.24575996 413.98356438 C319.58031429 412.60297776 320.93921794 411.24605445 322.29907227 409.89038086 C323.06405533 409.11286972 323.82903839 408.33535858 324.61720276 407.5342865 C327 406 327 406 330.13833618 406.19854736 C332.89574215 406.970801 335.36251761 407.87467824 337.95703125 409.08203125 C338.8917627 409.51314209 339.82649414 409.94425293 340.78955078 410.38842773 C341.78712402 410.85837158 342.78469727 411.32831543 343.8125 411.8125 C344.86421387 412.30242432 345.91592773 412.79234863 346.99951172 413.29711914 C350.33694953 414.85648686 353.66856236 416.42786089 357 418 C358.05912598 418.49532227 359.11825195 418.99064453 360.20947266 419.50097656 C375.1136293 426.47424818 389.67744902 433.89918449 404 442 C405.03801758 442.5868457 406.07603516 443.17369141 407.14550781 443.77832031 C429.96196273 456.7237783 452.09482844 470.57486057 474 485 C475.13788748 485.74499539 476.27588347 486.48982511 477.4140625 487.234375 C492.83595206 497.39978952 507.80056184 508.22775099 522.62353516 519.24121094 C525.03736888 521.0276562 527.46047595 522.80076437 529.88671875 524.5703125 C539.18655976 531.36098272 548.28897593 538.3271522 557.23242188 545.57958984 C559.57127184 547.459069 561.94009967 549.29844439 564.31005859 551.13842773 C570.33513012 555.81965146 576.18767734 560.66010803 581.95458984 565.65576172 C585.48272476 568.71069511 589.05472815 571.69401362 592.6875 574.625 C597.37382523 578.4262067 601.81449671 582.44617666 606.25 586.53515625 C608.93077009 588.93794876 611.68506073 591.19434527 614.5 593.4375 C619.49575113 597.46403265 623.96852957 601.8695592 628.44921875 606.4453125 C630.57040177 608.56974388 632.71626968 610.55580596 635 612.5 C639.27580595 616.14494933 643.17202535 620.14002596 647.09375 624.15625 C649.21784255 626.28559186 651.43363349 628.26295308 653.71484375 630.22265625 C658.72682768 634.5647977 663.38595612 639.23981123 668.0625 643.9375 C668.92166016 644.79279297 669.78082031 645.64808594 670.66601562 646.52929688 C675.07586266 650.94588164 679.31803764 655.43263235 683.38452148 660.16625977 C685.95389123 663.08276817 688.72142959 665.78470272 691.5 668.5 C695.54552665 672.50032843 699.46318265 676.52838992 703.1484375 680.8671875 C705.59332528 683.68345064 708.14424469 686.39804052 710.6875 689.125 C716.472307 695.35193477 722.0133476 701.76480917 727.50878906 708.24707031 C728.97505804 709.97068054 730.45042538 711.68597174 731.9296875 713.3984375 C739.16870394 721.78318023 746.24502526 730.29378055 753.25634766 738.86962891 C754.95192265 740.94125974 756.65324301 743.00805165 758.35546875 745.07421875 C765.31494898 753.5476186 771.99235415 762.19204993 778.51611328 771.00439453 C779.99930341 772.9990632 781.49525693 774.98342657 782.99609375 776.96484375 C789.65336467 785.76036644 796.09306801 794.68707903 802.40966797 803.72998047 C804.06853875 806.09783134 805.73839909 808.45763853 807.41015625 810.81640625 C815.57247199 822.35838648 823.4140057 834.07167794 831 846 C831.59425781 846.93328125 832.18851563 847.8665625 832.80078125 848.828125 C842.23091267 863.67810037 851.25641204 878.73639669 860 894 C860.41942871 894.73089844 860.83885742 895.46179688 861.27099609 896.21484375 C868.76474611 909.30737252 876.25393005 922.5078601 883 936 C952.63 936.33 1022.26 936.66 1094 937 C1092.90422771 940.28731688 1092.22195399 940.88003756 1089.625 943 C1084.10384123 947.68461956 1079.07870134 952.84879511 1074 958 C1068.50166514 963.5768291 1063.00607216 969.07773614 1057.05078125 974.171875 C1052.67208202 978.0751726 1048.61656403 982.32437479 1044.5 986.5 C1039.16601368 991.9105141 1033.83955219 997.21172831 1028.06835938 1002.15429688 C1023.68533919 1006.06549052 1019.62254675 1010.31830624 1015.5 1014.5 C1005.48287532 1024.66084239 1005.48287532 1024.66084239 1001.03125 1028.46875 C995.72942959 1033.00933836 990.89693613 1038.03315519 986 1043 C980.37577322 1048.70451825 974.75538795 1054.34478618 968.66259766 1059.55566406 C966.5531779 1061.3881644 964.61762404 1063.35591233 962.6875 1065.375 C957.10239887 1071.03753754 950.9858884 1076.65694398 944.109375 1080.69921875 C941.55007133 1082.96829876 941.55007133 1082.96829876 942.015625 1086.9765625 C942.30712245 1088.65780482 942.63878856 1090.33234512 943 1092 C943.19271484 1092.92006836 943.38542969 1093.84013672 943.58398438 1094.78808594 C944.2814742 1097.98962706 945.01672963 1101.1814748 945.75 1104.375 C966.61529908 1198.57234111 963.49883452 1305.65787819 910 1394 C906.83682525 1398.79385658 903.4531988 1403.41253882 900 1408 C899.5870166 1408.55719727 899.1740332 1409.11439453 898.74853516 1409.68847656 C884.10370708 1429.37757126 866.507311 1446.20880011 847 1461 C846.41379883 1461.44843262 845.82759766 1461.89686523 845.22363281 1462.35888672 C781.94446062 1510.60882115 702.64991033 1533.11586286 624 1538 C622.81511258 1538.08213958 621.63022516 1538.16427915 620.40943205 1538.2489078 C603.13454857 1539.34305222 585.82448813 1539.14742545 568.52366476 1539.14087028 C563.66654694 1539.1401323 558.80943432 1539.14517804 553.95231879 1539.1494453 C544.33987488 1539.15698666 534.72743653 1539.15921637 525.11498998 1539.15977435 C513.59268136 1539.1606918 502.07037781 1539.16737045 490.54807139 1539.17412117 C462.71098128 1539.1901422 434.87389173 1539.19607945 407.03679784 1539.20086992 C393.86057109 1539.20320919 380.68434478 1539.20681213 367.50811837 1539.2105653 C323.08214428 1539.2231948 278.65617029 1539.23400975 234.23019444 1539.23740576 C232.10938952 1539.237568 229.9885846 1539.23773356 227.86777968 1539.23790014 C223.61480689 1539.23823393 219.36183411 1539.23856441 215.10886133 1539.2388947 C210.1301619 1539.23928159 205.15146247 1539.2396712 200.17276303 1539.24006577 C198.74784562 1539.24017819 197.32292821 1539.2402896 195.8980108 1539.24040002 C150.13561405 1539.24394935 104.37323301 1539.25903032 58.61084226 1539.28233776 C25.70427973 1539.29909078 -7.20227982 1539.31455889 -40.10884666 1539.31907272 C-41.12495067 1539.31921295 -41.12495067 1539.31921295 -42.16158203 1539.31935601 C-57.03555514 1539.3213755 -71.90952821 1539.32253118 -86.78350146 1539.3228846 C-92.76868619 1539.3230377 -98.75387091 1539.32329162 -104.73905563 1539.32357025 C-106.04836558 1539.32362602 -107.35767554 1539.32368179 -108.70666155 1539.32373925 C-129.74813754 1539.32488837 -150.78959723 1539.3358982 -171.83106773 1539.35045731 C-192.98756085 1539.3648427 -214.14403313 1539.36804769 -235.30052979 1539.36001733 C-247.85716283 1539.35557124 -260.41372847 1539.35938087 -272.97035262 1539.37525584 C-281.37272721 1539.3850436 -289.77505485 1539.38379154 -298.17742907 1539.37381961 C-302.95484241 1539.368455 -307.73212681 1539.36762798 -312.50952919 1539.38032833 C-355.79962469 1539.4879929 -396.35188322 1534.32797832 -436 1516 C-436.73234863 1515.66210449 -437.46469727 1515.32420898 -438.21923828 1514.97607422 C-453.22416718 1507.96445785 -466.97911593 1499.2186852 -480 1489 C-480.82628906 1488.36707031 -481.65257812 1487.73414063 -482.50390625 1487.08203125 C-492.20021184 1479.53354295 -501.1652261 1471.05406541 -509.70703125 1462.23046875 C-511.61428725 1460.37519928 -513.55444669 1458.65385981 -515.57421875 1456.92578125 C-521.49992639 1451.78109274 -526.93091359 1446.1271767 -532.43652344 1440.54296875 C-537.46086968 1435.45346034 -542.51207513 1430.47904215 -547.94921875 1425.828125 C-553.28905679 1421.0680408 -558.2026805 1415.83027961 -563.22265625 1410.73828125 C-567.05486605 1406.87260237 -570.86411087 1403.04206076 -575 1399.5 C-581.09140264 1394.28319713 -586.59653402 1388.4451226 -592.22265625 1382.73828125 C-596.04710509 1378.88043111 -599.84746827 1375.05651507 -603.9765625 1371.5234375 C-609.75048618 1366.57978942 -614.98359556 1361.07176995 -620.31640625 1355.66308594 C-621.70632591 1354.25517685 -623.09920977 1352.85019602 -624.4921875 1351.4453125 C-625.31058105 1350.61531738 -626.12897461 1349.78532227 -626.97216797 1348.93017578 C-628.85260529 1346.9517258 -628.85260529 1346.9517258 -631 1346 C-631 1345.34 -631 1344.68 -631 1344 C-630.02755077 1343.99959982 -629.05510154 1343.99919963 -628.05318414 1343.99878732 C-594.75143891 1343.98506023 -561.44969397 1343.97067013 -528.14794922 1343.95581055 C-527.14148129 1343.95536154 -527.14148129 1343.95536154 -526.11468067 1343.95490346 C-454.16809447 1343.92278809 -382.22151205 1343.8863015 -310.27493286 1343.84101868 C-308.67540959 1343.84001305 -307.07588631 1343.83900743 -305.47636304 1343.83800181 C-271.89626713 1343.81687675 -238.31617164 1343.79513914 -204.73607658 1343.77269462 C-187.86575279 1343.76141937 -170.99542892 1343.75026172 -154.12510497 1343.73921531 C-151.58040248 1343.7375484 -149.03569999 1343.73587813 -146.4909975 1343.73420772 C-107.34187999 1343.70853878 -68.19276298 1343.68538032 -29.04364014 1343.66955566 C-27.78262165 1343.66904587 -27.78262165 1343.66904587 -26.49612805 1343.66852577 C-12.94332827 1343.66306211 0.60947159 1343.65781062 14.16227146 1343.65258733 C53.23522825 1343.63752525 92.3081815 1343.62087422 131.38113213 1343.59387684 C132.18595502 1343.59332151 132.99077791 1343.59276618 133.81998938 1343.59219403 C151.4949111 1343.57997019 169.16983212 1343.5669408 186.84475269 1343.55315043 C193.95834941 1343.54761441 201.07194622 1343.54219417 208.18554306 1343.53681374 C208.96405757 1343.53622211 209.74257208 1343.53563048 210.54467794 1343.53502092 C235.55909829 1343.51606871 260.57351123 1343.50651164 285.58793803 1343.50196405 C310.82079474 1343.49733323 336.05362791 1343.48332118 361.2864714 1343.45657366 C364.78680795 1343.45286552 368.28714459 1343.44926308 371.78748131 1343.44572449 C372.47354564 1343.4450271 373.15960997 1343.44432971 373.86646413 1343.44361119 C385.30904436 1343.43226848 396.75159247 1343.43262 408.19417794 1343.43623071 C418.19548054 1343.43855914 428.19673649 1343.42989492 438.1980244 1343.41267589 C443.87916643 1343.40319814 449.56020534 1343.39813373 455.24135138 1343.40660437 C539.32900168 1343.51989821 632.43444789 1334.39459746 696 1273 C696.99451097 1272.06871058 697.98930622 1271.13772464 698.984375 1270.20703125 C733.74484261 1237.16910665 753.97794066 1183.70933055 758.53457642 1136.79220581 C758.66630721 1135.44501874 758.66630721 1135.44501874 758.80069923 1134.07061577 C758.89935311 1133.04566096 758.89935311 1133.04566096 759 1132 C758.10062922 1132.00046794 757.20125844 1132.00093588 756.274634 1132.00141801 C669.28698523 1132.04658264 582.29933346 1132.09110223 462.34217834 1132.12702942 C460.86240862 1132.12744777 459.38263889 1132.12786613 457.90286916 1132.12828448 C426.83600853 1132.13705423 395.76914776 1132.14520419 364.70228679 1132.15263903 C349.09429998 1132.15637496 333.4863132 1132.16022987 317.87832644 1132.16419732 C315.52405185 1132.16479508 313.16977726 1132.16538943 310.81550267 1132.16598364 C274.60136475 1132.1751539 238.38722986 1132.18686196 202.1730957 1132.20599365 C201.39560065 1132.20640435 200.61810561 1132.20681505 199.8170501 1132.20723819 C187.2830693 1132.21387456 174.74908862 1132.22072567 162.21510795 1132.22760532 C126.0739332 1132.2474392 89.93276081 1132.26566173 53.79158115 1132.27341938 C53.04695022 1132.27357999 52.30231929 1132.27374059 51.53512379 1132.27390606 C35.18103595 1132.27740493 18.82694808 1132.28008876 2.47285998 1132.28200295 C-4.10941149 1132.28278771 -10.69168294 1132.28368959 -17.27395439 1132.28463173 C-18.35449511 1132.28478215 -18.35449511 1132.28478215 -19.45686494 1132.28493561 C-42.59242462 1132.28821441 -65.72796686 1132.30099157 -88.86351952 1132.31884663 C-112.85853082 1132.33731965 -136.8535197 1132.34502341 -160.84853853 1132.34050413 C-174.65764356 1132.33823302 -188.46668549 1132.3442099 -202.27577906 1132.36239263 C-211.53031543 1132.37373879 -220.78481104 1132.37392406 -230.03935035 1132.36549544 C-235.29316859 1132.3610164 -240.54686853 1132.36094902 -245.80067349 1132.37464955 C-316.31422628 1132.54743772 -387.18822977 1124.51879468 -452 1095 C-452.95229492 1094.57251465 -453.90458984 1094.1450293 -454.88574219 1093.70458984 C-485.75670144 1079.76669774 -513.53863947 1061.23830375 -539 1039 C-539.75579346 1038.34112793 -539.75579346 1038.34112793 -540.52685547 1037.66894531 C-564.1116268 1016.96223752 -582.50799918 991.7366187 -597 964 C-597.57016846 962.91090332 -597.57016846 962.91090332 -598.15185547 961.79980469 C-630.8828292 898.32585563 -635.38129298 822.49742841 -628.0625 752.625 C-627.97723053 751.8065863 -627.89196106 750.98817261 -627.80410767 750.1449585 C-627.55552152 747.79623571 -627.29763248 745.44877031 -627.03515625 743.1015625 C-626.92412567 742.07213531 -626.92412567 742.07213531 -626.81085205 741.02191162 C-626.21167173 735.85738309 -625.14393204 731.14769418 -624 726 C-726.63 726 -829.26 726 -935 726 C-933.3159161 722.63183219 -932.5798605 721.34994432 -929.97265625 718.99609375 C-929.04549805 718.1462793 -929.04549805 718.1462793 -928.09960938 717.27929688 C-927.42736328 716.67150391 -926.75511719 716.06371094 -926.0625 715.4375 C-918.72028492 708.69078255 -911.64292334 701.71716383 -904.64868164 694.61108398 C-901.22340281 691.14829002 -897.79364792 687.763491 -894.09375 684.59375 C-888.95320459 680.17593474 -884.25573727 675.32396879 -879.5 670.5 C-869.48287532 660.33915761 -869.48287532 660.33915761 -865.03125 656.53125 C-859.72942959 651.99066164 -854.89693613 646.96684481 -850 642 C-844.50166514 636.4231709 -839.00607216 630.92226386 -833.05078125 625.828125 C-828.67208202 621.9248274 -824.61656403 617.67562521 -820.5 613.5 C-815.04882959 607.97062054 -809.6090052 602.52174443 -803.70751953 597.47119141 C-801.46105017 595.53564317 -799.33457463 593.4821588 -797.1875 591.4375 C-779.75582204 575.59489765 -759.35405674 562.8402549 -738 553 C-737.28827637 552.6690332 -736.57655273 552.33806641 -735.84326172 551.99707031 C-718.53085203 544.046524 -700.47679353 538.88410382 -681.8125 535.1875 C-680.35638306 534.89516479 -680.35638306 534.89516479 -678.87084961 534.59692383 C-661.41003383 531.34710092 -643.75736816 530.69285804 -626.04296875 530.5859375 C-624.0327328 530.56715929 -622.02250419 530.54758137 -620.01228333 530.5272522 C-614.79953398 530.47662586 -609.58675927 530.43663535 -604.37390137 530.39910889 C-599.02329601 530.35862524 -593.67278973 530.30773891 -588.32226562 530.2578125 C-577.88158072 530.16187989 -567.44083894 530.07721952 -557 530 C-556.61288345 529.24656815 -556.22576691 528.49313629 -555.82691956 527.71687317 C-554.35573189 524.85696685 -552.88193947 521.99842097 -551.4065094 519.14070129 C-550.77474463 517.91581739 -550.14394873 516.69043316 -549.51423645 515.4644928 C-543.63831077 504.02798366 -537.285795 492.90945814 -530.70263672 481.86572266 C-529.02825589 479.04755774 -527.3726081 476.21924348 -525.72265625 473.38671875 C-515.10409112 455.19492494 -503.82112985 437.43309269 -492 420 C-491.51208984 419.27780273 -491.02417969 418.55560547 -490.52148438 417.81152344 C-482.56531413 406.04570505 -474.38286167 394.46508481 -466 383 C-465.43667969 382.2265625 -464.87335938 381.453125 -464.29296875 380.65625 C-453.67920947 366.08928467 -442.81631991 351.71642482 -431.328125 337.82421875 C-429.53455147 335.64845757 -427.75489748 333.46394283 -425.984375 331.26953125 C-419.29783101 322.98536186 -412.50432034 314.8139848 -405.53125 306.76953125 C-403.94286806 304.93397764 -402.3615981 303.09247315 -400.78125 301.25 C-394.57356231 294.02805684 -388.24745161 286.94209501 -381.7578125 279.97265625 C-379.34868391 277.38437039 -376.98016287 274.7626086 -374.625 272.125 C-362.63153457 258.78244629 -350.13849474 245.97924594 -337.43896484 233.30859375 C-335.07645357 230.95059186 -332.71732488 228.58931697 -330.36004066 226.22609711 C-328.0679898 223.92953761 -325.77210505 221.63681854 -323.4765625 219.34375 C-322.64307281 218.50823608 -321.80958313 217.67272217 -320.95083618 216.81188965 C-316.68083926 212.55882149 -312.34828345 208.45203585 -307.75863647 204.54455566 C-305.92435939 202.93356721 -304.20882649 201.2428042 -302.5 199.5 C-299.51127663 196.46405075 -296.38293521 193.65491341 -293.15625 190.875 C-290.80037042 188.82640906 -288.4949254 186.72796998 -286.1875 184.625 C-282.72469918 181.49577173 -279.19320997 178.49499651 -275.5625 175.5625 C-271.73544273 172.46851286 -268.05719127 169.2716945 -264.4375 165.9375 C-260.36391744 162.19668897 -256.19922638 158.66992787 -251.8515625 155.25390625 C-248.9630898 152.97082577 -246.10997471 150.64884071 -243.25976562 148.31835938 C-236.23911956 142.58141297 -229.15377936 136.95737775 -221.93359375 131.47265625 C-219.6696694 129.74841487 -217.41303555 128.01482406 -215.15625 126.28125 C-152.90203268 78.53511264 -85.94746071 35.05623779 -14.125 3.125 C-13.16182861 2.68961914 -12.19865723 2.25423828 -11.20629883 1.80566406 C-10.31579834 1.41862305 -9.42529785 1.03158203 -8.5078125 0.6328125 C-7.73066895 0.29137207 -6.95352539 -0.05006836 -6.15283203 -0.40185547 C-3.50698287 -1.13698026 -2.56617695 -0.98043008 0 0 Z M-274.71032715 257.57249451 C-275.7326439 258.59555369 -276.75408871 259.61948492 -277.7746582 260.64428711 C-279.32584727 262.20089389 -280.88239392 263.75200171 -282.43945312 265.30273438 C-287.83689502 270.6962688 -293.06172441 276.17865213 -298 282 C-298.94895755 283.08340254 -299.89942668 284.16548334 -300.8515625 285.24609375 C-308.65254206 294.18932483 -315.91820005 303.47992552 -323 313 C-323.52706543 313.70608398 -324.05413086 314.41216797 -324.59716797 315.13964844 C-343.23923482 340.21377344 -359.52344794 366.80142181 -373.03125 394.98876953 C-374.10983304 397.22802535 -375.21123036 399.45541217 -376.3125 401.68359375 C-391.13053591 431.90863634 -402.10414809 463.58055499 -411.4375 495.875 C-411.73100342 496.8868335 -412.02450684 497.89866699 -412.3269043 498.94116211 C-414.32485206 506.05668028 -415.98884534 513.22937403 -417.61352539 520.43798828 C-417.84380684 521.45566788 -418.07408829 522.47334747 -418.31134796 523.52186584 C-418.87520561 526.01435891 -419.4380636 528.50707321 -420 531 C-365.17057083 531.09170948 -310.34114947 531.16211672 -255.51165859 531.20426132 C-249.02722214 531.20926368 -242.54278584 531.21444102 -236.05834961 531.21972656 C-234.12208297 531.22130043 -234.12208297 531.22130043 -232.14669982 531.22290608 C-211.29096911 531.24027482 -190.43528284 531.27179291 -169.57957842 531.30861118 C-148.15328569 531.34611912 -126.72701611 531.36825661 -105.3006919 531.37635398 C-92.09718089 531.38182138 -78.89379556 531.39904107 -65.69032327 531.43166587 C-56.61581772 531.45293561 -47.54137642 531.45917209 -38.4668478 531.45400551 C-33.24430473 531.45146297 -28.02198008 531.45514556 -22.79947662 531.4768219 C28.19521094 533.27258883 28.19521094 533.27258883 72.82592773 513.265625 C81.39749325 504.16616705 82.55917573 492.9981276 82.33984375 481.02734375 C80.59025285 443.61804132 52.72390879 406.2748404 32 377 C31.18595835 375.83740729 30.37215387 374.67464848 29.55859375 373.51171875 C22.96828573 364.14124865 16.01540152 355.05463697 9 346 C8.51354004 345.37029297 8.02708008 344.74058594 7.52587891 344.09179688 C1.72961414 336.59852684 -4.23465073 329.28169725 -10.38671875 322.078125 C-12.77882269 319.2729268 -15.11455851 316.42536843 -17.4375 313.5625 C-25.04021464 304.23251387 -32.90843613 295.13108827 -40.99609375 286.21875 C-42.81311982 284.20691607 -44.59944392 282.17339566 -46.375 280.125 C-49.82919304 276.15669451 -53.39130558 272.28987441 -56.95483398 268.42016602 C-59.487107 265.66561908 -61.99020203 262.89274925 -64.4375 260.0625 C-68.98123293 254.82638872 -73.72337974 249.77052573 -78.43701172 244.68798828 C-79.92095404 243.08536766 -81.40084559 241.47913845 -82.87890625 239.87109375 C-88.63490354 233.61094303 -94.42904922 227.38731322 -100.25 221.1875 C-100.89936523 220.49430664 -101.54873047 219.80111328 -102.21777344 219.08691406 C-105.43999586 215.66176854 -108.69944897 212.29140785 -112.046875 208.98828125 C-114.55633458 206.49845987 -116.93485238 203.96432846 -119.2265625 201.2734375 C-124.27615558 195.40948642 -129.87266415 190.05886234 -135.375 184.625 C-137.5523492 182.47422699 -139.72636102 180.32015877 -141.8984375 178.1640625 C-142.39628754 177.6745108 -142.89413757 177.18495911 -143.40707397 176.68057251 C-146.88724417 173.22551165 -146.88724417 173.22551165 -148 171 C-189.1699989 171 -246.77167366 229.72524004 -274.71032715 257.57249451 Z M470.26568604 582.36877441 C469.64691589 582.99989136 469.02814575 583.6310083 468.390625 584.28125 C467.74559021 584.92815796 467.10055542 585.57506592 466.43597412 586.24157715 C465.06741032 587.6168749 463.70245487 588.99577119 462.34082031 590.37792969 C460.27903334 592.47053272 458.20709119 594.55259882 456.1328125 596.6328125 C454.80146525 597.97334477 453.47071763 599.31447287 452.140625 600.65625 C451.52995178 601.2711731 450.91927856 601.88609619 450.2901001 602.51965332 C446.57390059 606.29632522 443.03182067 610.18362511 439.57928467 614.20300293 C437.17986397 616.93319594 434.60133528 619.46417217 432 622 C428.03336235 625.91253596 424.25414849 629.89561196 420.640625 634.140625 C418.28517327 636.81013696 415.74771311 639.2780701 413.1875 641.75 C411.28973453 643.70198734 409.50268548 645.69516319 407.71875 647.75 C403.48158351 652.62861387 399.04849786 657.309627 394.60546875 662 C390.85727962 665.97323568 387.21036761 670.01327995 383.62988281 674.13818359 C381.34657076 676.74641274 378.98773737 679.27592759 376.625 681.8125 C372.32062961 686.46523507 368.28687963 691.27916388 364.3125 696.21875 C361.80027358 699.24021151 359.17577102 702.12419293 356.5 705 C352.24469387 709.57930302 348.2267731 714.2928601 344.3046875 719.1640625 C342.24153104 721.70279401 340.14058673 724.19936465 338.01538086 726.68579102 C332.26190912 733.41720141 326.7367865 740.30295126 321.31445312 747.30322266 C320.07237036 748.90657987 318.8253966 750.50614468 317.578125 752.10546875 C262.07553116 820.53428624 262.07553116 820.53428624 243 903 C243.87653412 906.67262898 245.11964488 909.73288299 247 913 C247.4125 913.71671875 247.825 914.4334375 248.25 915.171875 C255.65375344 926.36163873 269.34727266 929.99540804 281.82617188 932.58691406 C288.52325866 933.87448019 295.24501136 935.05832262 302 936 C303.18145316 936.17079795 304.36290632 936.3415959 305.58016109 936.51756954 C313.21785061 937.34984993 320.92389253 937.13406108 328.59657288 937.12025452 C330.39862869 937.12069089 332.20068444 937.12156703 334.00273985 937.12284368 C338.94209845 937.12507555 343.88143529 937.12108526 348.82079113 937.11606562 C354.15197108 937.11174253 359.48314984 937.11320887 364.81433105 937.1139679 C374.04682264 937.11449195 383.27930715 937.1113575 392.51179695 937.10573006 C405.86038747 937.09759904 419.20897457 937.09499819 432.55756729 937.09374207 C454.21538209 937.09155407 475.87319311 937.0849008 497.53100586 937.07543945 C518.56811504 937.06625882 539.6052232 937.05918117 560.64233398 937.05493164 C561.93931255 937.05466892 563.23629111 937.05440619 564.57257206 937.05413551 C571.07920734 937.05283046 577.58584263 937.05156676 584.09247792 937.05032361 C638.06165455 937.03995884 692.03082709 937.02234737 746 937 C745.36534418 934.12857343 744.72979975 931.25734831 744.09375 928.38623047 C743.82643066 927.17612556 743.82643066 927.17612556 743.55371094 925.9415741 C729.44573395 862.30804544 703.50005676 799.03101389 667 745 C666.26523438 743.91074219 665.53046875 742.82148437 664.7734375 741.69921875 C662.95543064 739.04492874 661.11943051 736.40537558 659.26025391 733.77978516 C658.36146878 732.51048187 657.46562836 731.23909133 656.57177734 729.96630859 C648.53607772 718.54283398 640.01472562 707.66411594 631 697 C630.0036192 695.80753146 629.0075131 694.61483331 628.01171875 693.421875 C614.21837945 677.00577656 599.38092915 660.87187838 583 647 C582.0203125 646.14277344 581.040625 645.28554688 580.03125 644.40234375 C565.76399002 631.94576691 550.82846067 620.40516339 535 610 C534.2776416 609.52353027 533.5552832 609.04706055 532.81103516 608.55615234 C517.37420517 598.4350076 501.2580631 589.61480015 484.8125 581.25 C484.15934814 580.91452148 483.50619629 580.57904297 482.83325195 580.23339844 C476.8063376 577.22521451 475.05854758 577.60080695 470.26568604 582.36877441 Z " fill="#24A5B6" transform="translate(954,1)"/>
<path d="M0 0 C2.40803528 2.0405426 2.40803528 2.0405426 5.11645508 4.76000977 C5.6129808 5.25449112 6.10950653 5.74897247 6.62107849 6.25843811 C8.26124653 7.89559806 9.89041289 9.5432563 11.51953125 11.19140625 C12.66231304 12.33724828 13.80568883 13.48249817 14.94963074 14.62718201 C17.34903179 17.0311878 19.74344 19.44001898 22.1340332 21.8527832 C25.1800718 24.92694437 28.23456861 27.9925147 31.29245472 31.05488682 C34.22546573 33.99309113 37.15379458 36.93594522 40.08203125 39.87890625 C40.63310862 40.43186434 41.18418598 40.98482243 41.75196266 41.55453682 C47.20395756 47.03055452 52.58568209 52.52146967 57.61479187 58.3948822 C59.30510171 60.35353834 61.09035594 62.18923296 62.9375 64 C63.60523438 64.66 64.27296875 65.32 64.9609375 66 C65.63382813 66.66 66.30671875 67.32 67 68 C71.66943156 72.57997885 76.14095888 77.23097153 80.41015625 82.1875 C82.50099282 84.57115643 84.72887685 86.78864325 87 89 C90.58275311 92.48847013 93.88549598 96.13257303 97.15722656 99.90771484 C100.1399835 103.29433739 103.26433922 106.54382717 106.375 109.8125 C111.40999204 115.13826853 116.19473354 120.55628487 120.76171875 126.29296875 C123.39399103 129.47650224 126.17710569 132.48606621 129 135.5 C133.3705695 140.17763527 137.53202343 144.95541115 141.54296875 149.94921875 C143.4036302 152.2595154 145.27984611 154.55097554 147.17578125 156.83203125 C163.22006663 176.14232892 179.27390177 195.91567866 192.79150391 217.10595703 C193.7111619 218.54731193 194.63631341 219.98516334 195.56396484 221.42138672 C221.63236329 261.865368 247.75882592 308.84214755 237.03515625 358.734375 C232.27578975 378.94395907 224.54337362 397.7371151 214.97802734 416.11767578 C214.03305623 417.93637956 213.10376211 419.76242758 212.17578125 421.58984375 C195.59849836 453.84667506 173.66608495 483.78064613 151 512 C150.49114258 512.63502441 149.98228516 513.27004883 149.45800781 513.92431641 C139.70703633 526.07301917 129.72239542 538.00535433 119.23046875 549.5234375 C117.3929101 551.56373905 115.58536791 553.62343326 113.78466797 555.69604492 C102.70127111 568.3672421 90.84214627 580.32043126 78.92700195 592.20336914 C76.53673893 594.58820255 74.15196242 596.97843105 71.76757812 599.36914062 C70.22167518 600.91438372 68.67546257 602.45931709 67.12890625 604.00390625 C66.4297963 604.70504044 65.73068634 605.40617462 65.01039124 606.1285553 C61.0585195 610.06188241 57.00929151 613.82312041 52.78045654 617.45765686 C50.01272343 619.85524089 47.35784636 622.37025978 44.6875 624.875 C39.89485085 629.3337948 34.97810172 633.56120791 29.87109375 637.66015625 C26.56427748 640.35509903 23.3471208 643.14252422 20.125 645.9375 C14.11535872 651.12771924 7.92451744 656.01430985 1.58691406 660.79541016 C-1.02333759 662.77679195 -3.60127484 664.79991125 -6.1875 666.8125 C-33.86746347 688.16622163 -63.40808072 708.54348282 -96.75 719.875 C-97.95366211 720.28649292 -97.95366211 720.28649292 -99.18164062 720.70629883 C-113.11473593 725.21662 -126.24402774 726.44329431 -140.7689209 726.40545654 C-142.63051854 726.41162787 -144.49211224 726.41909874 -146.35370004 726.42774135 C-151.44284682 726.44761562 -156.53185395 726.44909336 -161.62103304 726.44740601 C-167.14629359 726.44883701 -172.67150084 726.46749889 -178.19673347 726.48391628 C-189.08616222 726.51354814 -199.97555661 726.52723851 -210.86502006 726.53575506 C-223.76545548 726.54650756 -236.66584218 726.57373159 -249.5662507 726.60131257 C-275.18650321 726.65540812 -300.80675628 726.69032883 -326.42704934 726.71791288 C-346.52989397 726.73960391 -366.63272025 726.76733259 -386.73554937 726.8003948 C-458.14056018 726.91766337 -529.54559031 727.00719651 -935 726 C-933.61113012 723.10253768 -932.36471863 721.15570875 -929.97265625 718.99609375 C-929.04549805 718.1462793 -929.04549805 718.1462793 -928.09960938 717.27929688 C-927.42736328 716.67150391 -926.75511719 716.06371094 -926.0625 715.4375 C-918.72028492 708.69078255 -911.64292334 701.71716383 -904.64868164 694.61108398 C-901.22340281 691.14829002 -897.79364792 687.763491 -894.09375 684.59375 C-888.95320459 680.17593474 -884.25573727 675.32396879 -879.5 670.5 C-869.48287532 660.33915761 -869.48287532 660.33915761 -865.03125 656.53125 C-859.72942959 651.99066164 -854.89693613 646.96684481 -850 642 C-844.50166514 636.4231709 -839.00607216 630.92226386 -833.05078125 625.828125 C-828.67208202 621.9248274 -824.61656403 617.67562521 -820.5 613.5 C-815.04882959 607.97062054 -809.6090052 602.52174443 -803.70751953 597.47119141 C-801.46105017 595.53564317 -799.33457463 593.4821588 -797.1875 591.4375 C-779.75582204 575.59489765 -759.35405674 562.8402549 -738 553 C-737.28827637 552.6690332 -736.57655273 552.33806641 -735.84326172 551.99707031 C-718.53085203 544.046524 -700.47679353 538.88410382 -681.8125 535.1875 C-680.35638306 534.89516479 -680.35638306 534.89516479 -678.87084961 534.59692383 C-661.41003383 531.34710092 -643.75736816 530.69285804 -626.04296875 530.5859375 C-624.0327328 530.56715929 -622.02250419 530.54758137 -620.01228333 530.5272522 C-614.79953398 530.47662586 -609.58675927 530.43663535 -604.37390137 530.39910889 C-599.02329601 530.35862524 -593.67278973 530.30773891 -588.32226562 530.2578125 C-577.88158072 530.16187989 -567.44083894 530.07721952 -557 530 C-556.61288345 529.24656815 -556.22576691 528.49313629 -555.82691956 527.71687317 C-554.35573189 524.85696685 -552.88193947 521.99842097 -551.4065094 519.14070129 C-550.77474463 517.91581739 -550.14394873 516.69043316 -549.51423645 515.4644928 C-543.63831077 504.02798366 -537.285795 492.90945814 -530.70263672 481.86572266 C-529.02825589 479.04755774 -527.3726081 476.21924348 -525.72265625 473.38671875 C-515.10409112 455.19492494 -503.82112985 437.43309269 -492 420 C-491.51208984 419.27780273 -491.02417969 418.55560547 -490.52148438 417.81152344 C-482.56531413 406.04570505 -474.38286167 394.46508481 -466 383 C-465.43667969 382.2265625 -464.87335938 381.453125 -464.29296875 380.65625 C-453.67920947 366.08928467 -442.81631991 351.71642482 -431.328125 337.82421875 C-429.53455147 335.64845757 -427.75489748 333.46394283 -425.984375 331.26953125 C-419.29783101 322.98536186 -412.50432034 314.8139848 -405.53125 306.76953125 C-403.94286806 304.93397764 -402.3615981 303.09247315 -400.78125 301.25 C-394.57356231 294.02805684 -388.24745161 286.94209501 -381.7578125 279.97265625 C-379.34868391 277.38437039 -376.98016287 274.7626086 -374.625 272.125 C-362.63153457 258.78244629 -350.13849474 245.97924594 -337.43896484 233.30859375 C-335.07645357 230.95059186 -332.71732488 228.58931697 -330.36004066 226.22609711 C-328.0679898 223.92953761 -325.77210505 221.63681854 -323.4765625 219.34375 C-322.64307281 218.50823608 -321.80958313 217.67272217 -320.95083618 216.81188965 C-316.68083926 212.55882149 -312.34828345 208.45203585 -307.75863647 204.54455566 C-305.92435939 202.93356721 -304.20882649 201.2428042 -302.5 199.5 C-299.51127663 196.46405075 -296.38293521 193.65491341 -293.15625 190.875 C-290.80037042 188.82640906 -288.4949254 186.72796998 -286.1875 184.625 C-282.72469918 181.49577173 -279.19320997 178.49499651 -275.5625 175.5625 C-271.73544273 172.46851286 -268.05719127 169.2716945 -264.4375 165.9375 C-260.36391744 162.19668897 -256.19922638 158.66992787 -251.8515625 155.25390625 C-248.9630898 152.97082577 -246.10997471 150.64884071 -243.25976562 148.31835938 C-236.23911956 142.58141297 -229.15377936 136.95737775 -221.93359375 131.47265625 C-219.6696694 129.74841487 -217.41303555 128.01482406 -215.15625 126.28125 C-152.90203268 78.53511264 -85.94746071 35.05623779 -14.125 3.125 C-13.16182861 2.68961914 -12.19865723 2.25423828 -11.20629883 1.80566406 C-10.31579834 1.41862305 -9.42529785 1.03158203 -8.5078125 0.6328125 C-7.73066895 0.29137207 -6.95352539 -0.05006836 -6.15283203 -0.40185547 C-3.50698287 -1.13698026 -2.56617695 -0.98043008 0 0 Z M-274.71032715 257.57249451 C-275.7326439 258.59555369 -276.75408871 259.61948492 -277.7746582 260.64428711 C-279.32584727 262.20089389 -280.88239392 263.75200171 -282.43945312 265.30273438 C-287.83689502 270.6962688 -293.06172441 276.17865213 -298 282 C-298.94895755 283.08340254 -299.89942668 284.16548334 -300.8515625 285.24609375 C-308.65254206 294.18932483 -315.91820005 303.47992552 -323 313 C-323.52706543 313.70608398 -324.05413086 314.41216797 -324.59716797 315.13964844 C-343.23923482 340.21377344 -359.52344794 366.80142181 -373.03125 394.98876953 C-374.10983304 397.22802535 -375.21123036 399.45541217 -376.3125 401.68359375 C-391.13053591 431.90863634 -402.10414809 463.58055499 -411.4375 495.875 C-411.73100342 496.8868335 -412.02450684 497.89866699 -412.3269043 498.94116211 C-414.32485206 506.05668028 -415.98884534 513.22937403 -417.61352539 520.43798828 C-417.84380684 521.45566788 -418.07408829 522.47334747 -418.31134796 523.52186584 C-418.87520561 526.01435891 -419.4380636 528.50707321 -420 531 C-365.17057083 531.09170948 -310.34114947 531.16211672 -255.51165859 531.20426132 C-249.02722214 531.20926368 -242.54278584 531.21444102 -236.05834961 531.21972656 C-234.12208297 531.22130043 -234.12208297 531.22130043 -232.14669982 531.22290608 C-211.29096911 531.24027482 -190.43528284 531.27179291 -169.57957842 531.30861118 C-148.15328569 531.34611912 -126.72701611 531.36825661 -105.3006919 531.37635398 C-92.09718089 531.38182138 -78.89379556 531.39904107 -65.69032327 531.43166587 C-56.61581772 531.45293561 -47.54137642 531.45917209 -38.4668478 531.45400551 C-33.24430473 531.45146297 -28.02198008 531.45514556 -22.79947662 531.4768219 C28.19521094 533.27258883 28.19521094 533.27258883 72.82592773 513.265625 C81.39749325 504.16616705 82.55917573 492.9981276 82.33984375 481.02734375 C80.59025285 443.61804132 52.72390879 406.2748404 32 377 C31.18595835 375.83740729 30.37215387 374.67464848 29.55859375 373.51171875 C22.96828573 364.14124865 16.01540152 355.05463697 9 346 C8.51354004 345.37029297 8.02708008 344.74058594 7.52587891 344.09179688 C1.72961414 336.59852684 -4.23465073 329.28169725 -10.38671875 322.078125 C-12.77882269 319.2729268 -15.11455851 316.42536843 -17.4375 313.5625 C-25.04021464 304.23251387 -32.90843613 295.13108827 -40.99609375 286.21875 C-42.81311982 284.20691607 -44.59944392 282.17339566 -46.375 280.125 C-49.82919304 276.15669451 -53.39130558 272.28987441 -56.95483398 268.42016602 C-59.487107 265.66561908 -61.99020203 262.89274925 -64.4375 260.0625 C-68.98123293 254.82638872 -73.72337974 249.77052573 -78.43701172 244.68798828 C-79.92095404 243.08536766 -81.40084559 241.47913845 -82.87890625 239.87109375 C-88.63490354 233.61094303 -94.42904922 227.38731322 -100.25 221.1875 C-100.89936523 220.49430664 -101.54873047 219.80111328 -102.21777344 219.08691406 C-105.43999586 215.66176854 -108.69944897 212.29140785 -112.046875 208.98828125 C-114.55633458 206.49845987 -116.93485238 203.96432846 -119.2265625 201.2734375 C-124.27615558 195.40948642 -129.87266415 190.05886234 -135.375 184.625 C-137.5523492 182.47422699 -139.72636102 180.32015877 -141.8984375 178.1640625 C-142.39628754 177.6745108 -142.89413757 177.18495911 -143.40707397 176.68057251 C-146.88724417 173.22551165 -146.88724417 173.22551165 -148 171 C-189.1699989 171 -246.77167366 229.72524004 -274.71032715 257.57249451 Z " fill="#017388" transform="translate(954,1)"/>
<path d="M0 0 C0.73636733 0.00291284 1.47273467 0.00582568 2.23141617 0.00882679 C3.00814554 0.00797237 3.78487491 0.00711794 4.58514154 0.00623763 C7.2077701 0.00458047 9.83033578 0.01010802 12.45295852 0.01555592 C14.32500339 0.01583777 16.19704837 0.01568011 18.06909317 0.01511341 C23.16805449 0.01482534 28.2669925 0.02072362 33.36594838 0.02768737 C38.68844321 0.03391931 44.01093851 0.03452458 49.33343643 0.03571278 C59.41987579 0.03882657 69.50630438 0.04704059 79.59273899 0.05706227 C91.07259067 0.06822193 102.55244287 0.07373348 114.03229862 0.0787577 C137.65421403 0.08922317 161.27611985 0.10682353 184.89802688 0.12908131 C185.09871277 1.29534046 185.09871277 1.29534046 185.30345291 2.48516041 C185.92615437 6.08613417 186.55658777 9.68571544 187.18708938 13.28533131 C187.50238601 15.11886158 187.50238601 15.11886158 187.82405227 16.98943287 C190.04395225 29.60079707 193.20543435 41.87407344 196.89802688 54.12908131 C197.16309036 55.00967213 197.42815384 55.89026295 197.70124954 56.79753834 C203.83009709 76.65193037 212.79319107 96.20001477 224.89802688 113.12908131 C225.61345657 114.14615162 226.32888626 115.16322193 227.06599563 116.21111256 C232.09573295 123.14591853 237.60698654 129.49756703 243.51716751 135.68083912 C244.83828545 137.06642463 246.1420446 138.46849915 247.44490188 139.87126881 C296.86924533 191.54217332 378.69904004 208.48883827 447.57589573 210.22160727 C451.51679531 210.2556138 455.45704908 210.26084327 459.39802688 210.25365406 C460.91138598 210.25464293 462.42474484 210.2560822 463.93810314 210.25792724 C467.20146857 210.26096133 470.46481357 210.26089762 473.7281794 210.25837094 C479.03981057 210.2542785 484.35142605 210.25709666 489.66305679 210.26071888 C496.37633881 210.26479582 503.08961728 210.26704821 509.80290055 210.26713488 C522.9836326 210.26733822 536.16432815 210.27983162 549.34504837 210.29674488 C551.42353289 210.29935043 553.50201743 210.30194924 555.58050197 210.30454141 C558.72935766 210.30847935 561.87821333 210.31242596 565.02706897 210.31640263 C576.87451576 210.33132312 588.72196364 210.34496288 600.5694136 210.35710865 C602.19253886 210.35877899 602.19253886 210.35877899 603.84845454 210.36048308 C621.41630196 210.37809014 638.98412637 210.38092462 656.55198115 210.37925825 C674.603311 210.37798011 692.65455509 210.39568561 710.70585197 210.43027622 C721.83440374 210.45093578 732.96275019 210.45625649 744.09131289 210.44194791 C751.70833229 210.4335016 759.3251916 210.44318674 766.94217718 210.46725741 C771.33797496 210.48058674 775.73338886 210.48571564 780.12918419 210.46913677 C784.1520217 210.45413163 788.17413462 210.46205227 792.19690841 210.48830631 C793.65283911 210.49373582 795.10883083 210.4906985 796.56471962 210.47838935 C808.80466462 210.38248885 808.80466462 210.38248885 812.67877334 213.52505833 C813.41112701 214.38438591 814.14348068 215.2437135 814.89802688 216.12908131 C815.55544876 216.88705006 816.21287063 217.64501881 816.89021438 218.42595631 C817.82220657 219.64025318 817.82220657 219.64025318 818.77302688 220.87908131 C824.63269397 228.21107621 831.14061068 234.90729297 837.61042923 241.69792897 C839.76107538 243.98353563 841.88245265 246.29395502 843.99896377 248.61113697 C850.73093536 255.96892934 857.6907868 263.07601879 864.75398391 270.11540943 C866.66385683 272.01986636 868.56824837 273.9296895 870.47224563 275.84001881 C875.89988974 281.27061649 881.30847239 286.66215471 887.16218704 291.63835865 C890.2802172 294.31609313 893.22805731 297.1774775 896.21052688 300.00408131 C901.32959687 304.81841458 906.54073574 309.40998142 912.03474563 313.79705006 C915.49971316 316.61913139 918.85052418 319.55862994 922.21052688 322.50408131 C928.60945225 328.08444598 935.15492896 333.41181058 941.8897261 338.58025318 C944.10218098 340.28652765 946.29852395 342.01253649 948.49568313 343.73845631 C984.38107226 371.72934089 1025.55921944 399.91144524 1071.89802688 405.12908131 C1071.89802688 405.45908131 1071.89802688 405.78908131 1071.89802688 406.12908131 C1002.08985051 406.18055711 932.28167186 406.22824757 862.4734816 406.25611073 C861.43847952 406.2565249 860.40347743 406.25693907 859.33711165 406.25736579 C836.83776109 406.26634682 814.33841033 406.27465704 791.83905926 406.2822773 C780.80362069 406.28601895 769.76818217 406.28990866 758.73274368 406.29387623 C757.63464938 406.29426851 756.53655507 406.29466079 755.40518518 406.29506495 C719.88344353 406.30782382 684.3617163 406.33033883 648.83998337 406.35797297 C612.30314634 406.38634484 575.76631727 406.40475476 539.22946941 406.41082628 C534.05583305 406.4116906 528.88219673 406.41266751 523.70856041 406.41371304 C522.69042485 406.41391531 521.67228929 406.41411758 520.62330114 406.41432597 C504.30684133 406.41785593 487.99040631 406.43172874 471.67395656 406.44957741 C455.22639091 406.46734486 438.77884957 406.47395903 422.33127468 406.46958544 C413.43752135 406.46752005 404.54383439 406.47016351 395.65009445 406.48669773 C316.81662048 406.62745933 238.7776429 402.32241046 165.89802688 369.12908131 C164.94573196 368.70159596 163.99343704 368.27411061 163.0122847 367.83367115 C132.14132545 353.89577905 104.35938742 335.36738506 78.89802688 313.12908131 C78.39416458 312.68983326 77.89030227 312.25058522 77.37117141 311.79802662 C53.78640009 291.09131883 35.3900277 265.86570001 20.89802688 238.12908131 C20.51791458 237.40301686 20.13780227 236.6769524 19.74617141 235.928886 C-13.00078286 172.42394648 -17.46469587 96.59446014 -10.16447312 26.69158131 C-10.07920365 25.86889759 -9.99393418 25.04621388 -9.90608078 24.19860035 C-9.65798153 21.84241158 -9.39993282 19.48757772 -9.13712937 17.13298756 C-9.06310898 16.44154148 -8.98908859 15.75009541 -8.91282517 15.03769642 C-7.17086998 0.02150764 -7.17086998 0.02150764 0 0 Z " fill="#29A8B8" transform="translate(336.10197311639786,726.8709186911583)"/>
<path d="M0 0 C2.40803528 2.0405426 2.40803528 2.0405426 5.11645508 4.76000977 C5.6129808 5.25449112 6.10950653 5.74897247 6.62107849 6.25843811 C8.26124653 7.89559806 9.89041289 9.5432563 11.51953125 11.19140625 C12.66231304 12.33724828 13.80568883 13.48249817 14.94963074 14.62718201 C17.34903179 17.0311878 19.74344 19.44001898 22.1340332 21.8527832 C25.1800718 24.92694437 28.23456861 27.9925147 31.29245472 31.05488682 C34.22546573 33.99309113 37.15379458 36.93594522 40.08203125 39.87890625 C40.63310862 40.43186434 41.18418598 40.98482243 41.75196266 41.55453682 C47.20395756 47.03055452 52.58568209 52.52146967 57.61479187 58.3948822 C59.30510171 60.35353834 61.09035594 62.18923296 62.9375 64 C63.60523438 64.66 64.27296875 65.32 64.9609375 66 C65.63382813 66.66 66.30671875 67.32 67 68 C71.66943156 72.57997885 76.14095888 77.23097153 80.41015625 82.1875 C82.50099282 84.57115643 84.72887685 86.78864325 87 89 C90.58275311 92.48847013 93.88549598 96.13257303 97.15722656 99.90771484 C100.1399835 103.29433739 103.26433922 106.54382717 106.375 109.8125 C111.40999204 115.13826853 116.19473354 120.55628487 120.76171875 126.29296875 C123.39399103 129.47650224 126.17710569 132.48606621 129 135.5 C133.3705695 140.17763527 137.53202343 144.95541115 141.54296875 149.94921875 C143.4036302 152.2595154 145.27984611 154.55097554 147.17578125 156.83203125 C163.22006663 176.14232892 179.27390177 195.91567866 192.79150391 217.10595703 C193.7111619 218.54731193 194.63631341 219.98516334 195.56396484 221.42138672 C221.63236329 261.865368 247.75882592 308.84214755 237.03515625 358.734375 C232.27578975 378.94395907 224.54337362 397.7371151 214.97802734 416.11767578 C214.03305623 417.93637956 213.10376211 419.76242758 212.17578125 421.58984375 C195.59849836 453.84667506 173.66608495 483.78064613 151 512 C150.49114258 512.63502441 149.98228516 513.27004883 149.45800781 513.92431641 C139.70703633 526.07301917 129.72239542 538.00535433 119.23046875 549.5234375 C117.39362509 551.56294518 115.5869665 553.62192285 113.78710938 555.69384766 C110.32114863 559.65647616 106.77839823 563.53651961 103.17578125 567.375 C102.53699539 568.055625 101.89820953 568.73625 101.24006653 569.4375 C94.10764053 576.9983946 86.80171228 584.384391 79.4519043 591.73339844 C77.13889652 594.04865064 74.834085 596.37188075 72.52929688 598.6953125 C71.05517373 600.17236043 69.58058309 601.64894197 68.10546875 603.125 C67.41913864 603.81851563 66.73280853 604.51203125 66.02568054 605.2265625 C65.39354141 605.855625 64.76140228 606.4846875 64.11010742 607.1328125 C63.55578537 607.68855957 63.00146332 608.24430664 62.43034363 608.81689453 C61 610 61 610 59 610 C60.71950385 604.64060066 62.60718866 599.39069888 64.7019043 594.16723633 C76.39543857 564.74657058 84.17101237 533.4261951 84.1875 501.6875 C84.19974609 500.45837891 84.21199219 499.22925781 84.22460938 497.96289062 C84.24170416 487.16468718 83.72442629 476.83452003 79 467 C78.57167339 465.73643649 78.16648571 464.46486051 77.78125 463.1875 C64.64909151 419.96405704 35.37145894 381.32778889 8 346 C7.51354004 345.37029297 7.02708008 344.74058594 6.52587891 344.09179688 C0.72961414 336.59852684 -5.23465073 329.28169725 -11.38671875 322.078125 C-13.77882269 319.2729268 -16.11455851 316.42536843 -18.4375 313.5625 C-26.04021464 304.23251387 -33.90843613 295.13108827 -41.99609375 286.21875 C-43.81311982 284.20691607 -45.59944392 282.17339566 -47.375 280.125 C-50.82919304 276.15669451 -54.39130558 272.28987441 -57.95483398 268.42016602 C-60.487107 265.66561908 -62.99020203 262.89274925 -65.4375 260.0625 C-69.98123293 254.82638872 -74.72337974 249.77052573 -79.43701172 244.68798828 C-80.92095404 243.08536766 -82.40084559 241.47913845 -83.87890625 239.87109375 C-89.63490354 233.61094303 -95.42904922 227.38731322 -101.25 221.1875 C-101.89936523 220.49430664 -102.54873047 219.80111328 -103.21777344 219.08691406 C-106.43999586 215.66176854 -109.69944897 212.29140785 -113.046875 208.98828125 C-115.55613863 206.49895399 -117.93269825 203.96514251 -120.22265625 201.2734375 C-123.30050549 197.69820223 -126.58176401 194.35529112 -129.93359375 191.0390625 C-130.72402573 190.25689362 -130.72402573 190.25689362 -131.53042603 189.45892334 C-133.72663929 187.29045565 -135.92656877 185.12583785 -138.13061523 182.96533203 C-139.75674919 181.36921101 -141.37675895 179.76707677 -142.99609375 178.1640625 C-143.49910507 177.6745108 -144.00211639 177.18495911 -144.52037048 176.68057251 C-145.71861993 175.49116463 -146.86483363 174.24975604 -148 173 C-148 172.34 -148 171.68 -148 171 C-187.36410523 188.25772968 -222.81214675 211.53041623 -255 240 C-255.89847656 240.78632813 -256.79695313 241.57265625 -257.72265625 242.3828125 C-265.00004067 248.89580978 -271.89850637 255.79443357 -278.8125 262.6875 C-279.31272675 263.18504791 -279.81295349 263.68259583 -280.32833862 264.19522095 C-286.10632055 269.94973683 -291.71767961 275.78405227 -297 282 C-297.94904734 283.08332388 -298.89951545 284.16540513 -299.8515625 285.24609375 C-307.65254206 294.18932483 -314.91820005 303.47992552 -322 313 C-322.52706543 313.70608398 -323.05413086 314.41216797 -323.59716797 315.13964844 C-342.23923482 340.21377344 -358.52344794 366.80142181 -372.03125 394.98876953 C-373.10983304 397.22802535 -374.21123036 399.45541217 -375.3125 401.68359375 C-394.62903177 441.08442926 -408.38648859 483.44599276 -418.08984375 526.1953125 C-419 530 -419 530 -420 532 C-465.21 532 -510.42 532 -557 532 C-555.67744952 528.03234857 -554.54348001 524.84484924 -552.671875 521.2265625 C-551.97783569 519.88452759 -551.97783569 519.88452759 -551.26977539 518.51538086 C-550.76824951 517.56155518 -550.26672363 516.60772949 -549.75 515.625 C-549.22204834 514.61767822 -548.69409668 513.61035645 -548.15014648 512.57250977 C-542.64893821 502.1790148 -536.73674925 492.04044629 -530.73486328 481.93017578 C-529.04967581 479.08390221 -527.37986353 476.22920255 -525.71484375 473.37109375 C-515.09637478 455.18592051 -503.8179174 437.42835516 -492 420 C-491.51208984 419.27780273 -491.02417969 418.55560547 -490.52148438 417.81152344 C-482.56531413 406.04570505 -474.38286167 394.46508481 -466 383 C-465.43667969 382.2265625 -464.87335938 381.453125 -464.29296875 380.65625 C-453.67920947 366.08928467 -442.81631991 351.71642482 -431.328125 337.82421875 C-429.53455147 335.64845757 -427.75489748 333.46394283 -425.984375 331.26953125 C-419.29783101 322.98536186 -412.50432034 314.8139848 -405.53125 306.76953125 C-403.94286806 304.93397764 -402.3615981 303.09247315 -400.78125 301.25 C-394.57356231 294.02805684 -388.24745161 286.94209501 -381.7578125 279.97265625 C-379.34868391 277.38437039 -376.98016287 274.7626086 -374.625 272.125 C-362.63153457 258.78244629 -350.13849474 245.97924594 -337.43896484 233.30859375 C-335.07645357 230.95059186 -332.71732488 228.58931697 -330.36004066 226.22609711 C-328.0679898 223.92953761 -325.77210505 221.63681854 -323.4765625 219.34375 C-322.64307281 218.50823608 -321.80958313 217.67272217 -320.95083618 216.81188965 C-316.68083926 212.55882149 -312.34828345 208.45203585 -307.75863647 204.54455566 C-305.92435939 202.93356721 -304.20882649 201.2428042 -302.5 199.5 C-299.51127663 196.46405075 -296.38293521 193.65491341 -293.15625 190.875 C-290.80037042 188.82640906 -288.4949254 186.72796998 -286.1875 184.625 C-282.72469918 181.49577173 -279.19320997 178.49499651 -275.5625 175.5625 C-271.73544273 172.46851286 -268.05719127 169.2716945 -264.4375 165.9375 C-260.36391744 162.19668897 -256.19922638 158.66992787 -251.8515625 155.25390625 C-248.9630898 152.97082577 -246.10997471 150.64884071 -243.25976562 148.31835938 C-236.23911956 142.58141297 -229.15377936 136.95737775 -221.93359375 131.47265625 C-219.6696694 129.74841487 -217.41303555 128.01482406 -215.15625 126.28125 C-152.90203268 78.53511264 -85.94746071 35.05623779 -14.125 3.125 C-13.16182861 2.68961914 -12.19865723 2.25423828 -11.20629883 1.80566406 C-10.31579834 1.41862305 -9.42529785 1.03158203 -8.5078125 0.6328125 C-7.73066895 0.29137207 -6.95352539 -0.05006836 -6.15283203 -0.40185547 C-3.50698287 -1.13698026 -2.56617695 -0.98043008 0 0 Z " fill="#1098AC" transform="translate(954,1)"/>
<path d="M0 0 C0.33 0 0.66 0 1 0 C1.08636719 0.68964844 1.17273437 1.37929688 1.26171875 2.08984375 C2.79404365 12.33814512 6.37431023 19.65888274 14.53125 26.234375 C27.15360523 35.20289055 45.0994772 36.92279662 60 39 C61.18159195 39.17015373 62.3631839 39.34030746 63.58058167 39.51561737 C71.21593173 40.34781056 78.91913616 40.15050468 86.58984375 40.15148926 C88.39118767 40.15534268 90.19253069 40.15963078 91.99387264 40.16431475 C96.9312919 40.17591835 101.86870195 40.1814302 106.80613208 40.18594956 C112.13529305 40.19191215 117.46444185 40.20357616 122.79359436 40.21458435 C132.02280353 40.23291331 141.25201299 40.24776671 150.48123169 40.26036072 C163.82618378 40.27866308 177.17111841 40.3033264 190.51605666 40.32973462 C212.16939022 40.37250432 233.82272859 40.41162791 255.47607422 40.44775391 C257.41942262 40.45099811 257.41942262 40.45099811 259.40203059 40.45430785 C269.91884727 40.47183644 280.43566425 40.48918688 290.95248127 40.50651073 C300.15728582 40.52167718 309.36209026 40.53690841 318.56689453 40.55224609 C319.86330769 40.55440496 321.15972085 40.55656383 322.49541926 40.55878812 C344.0778229 40.59484882 365.66021764 40.63479372 387.24260902 40.67754889 C400.56266302 40.70374693 413.88271427 40.72639561 427.20278174 40.74453247 C436.31718716 40.75716387 445.43158202 40.77327637 454.54597658 40.79218161 C459.81185629 40.80297624 465.0777257 40.81208144 470.34361458 40.81687737 C475.15565617 40.82128508 479.96766674 40.83019671 484.7796936 40.84282058 C486.52841851 40.8465807 488.27714806 40.84861879 490.025877 40.84884077 C492.38680024 40.84937577 494.74762859 40.85593751 497.10853577 40.86412811 C499.08278833 40.86730207 499.08278833 40.86730207 501.09692478 40.87054014 C504 41 504 41 505 42 C505.40103683 44.3848708 505.74370279 46.75478655 506.05078125 49.15234375 C506.14954559 49.90205444 506.24830994 50.65176514 506.35006714 51.42419434 C506.67691777 53.9278912 506.99561369 56.43252329 507.3125 58.9375 C507.42260406 59.80134308 507.53270813 60.66518616 507.64614868 61.5552063 C511.48458116 91.82915476 514.37829614 122.23530398 515.88649273 152.71802235 C515.96416164 154.27949699 516.04358684 155.84088499 516.12451649 157.40219402 C517.00155969 174.60789612 517.12059663 191.77489773 517.0625 209 C517.05746748 211.63671789 517.05290771 214.27343672 517.04882812 216.91015625 C517.03797857 223.27345868 517.02138354 229.63672468 517 236 C478.45120774 236.06877184 439.90242477 236.12158235 401.35358349 236.15319599 C396.79529254 236.15694779 392.23700171 236.16083079 387.67871094 236.16479492 C386.77129502 236.16558185 385.8638791 236.16636878 384.92896573 236.16717956 C370.26532526 236.18020854 355.60172033 236.20384847 340.93810089 236.23145839 C325.87495089 236.25958255 310.81181941 236.27619103 295.74864423 236.28226548 C286.46518133 236.28636743 277.18181889 236.29928991 267.89838694 236.3237494 C261.51932646 236.33969329 255.14031739 236.34438094 248.76123847 236.34050413 C245.08915661 236.33859594 241.41724944 236.34137431 237.7451992 236.35761642 C219.56547072 236.43405155 201.91062489 236.16173344 184.5 230.3125 C183.33428467 229.93121948 183.33428467 229.93121948 182.14501953 229.54223633 C134.37786185 213.43179076 93.40055334 179.67805606 55.61523438 147.37695312 C53.95165457 145.95878654 52.28104124 144.54924683 50.609375 143.140625 C47.66815685 140.6560381 44.75347437 138.14287531 41.85302734 135.61083984 C40.57538882 134.50018649 39.29144972 133.3967537 38.00244141 132.29931641 C35.96107047 130.55423421 33.94781258 128.78071086 31.9375 127 C31.3182666 126.47946045 30.6990332 125.9589209 30.06103516 125.42260742 C24.6085393 120.50073359 22.47141172 114.80576897 20 108 C19.60063232 106.96488281 19.20126465 105.92976562 18.78979492 104.86328125 C9.7333288 81.2783941 2.86572526 57.14994705 0 32 C-0.13019531 30.90171875 -0.26039062 29.8034375 -0.39453125 28.671875 C-0.96804233 22.95205778 -1.09208422 17.24412663 -1.125 11.5 C-1.12975342 10.81647461 -1.13450684 10.13294922 -1.1394043 9.42871094 C-1.12834709 6.1410334 -1.0104294 3.14355814 0 0 Z " fill="#016B80" transform="translate(1196,897)"/>
<path d="M0 0 C69.63 0 139.26 0 211 0 C209.90422771 3.28731688 209.22195399 3.88003756 206.625 6 C201.10384123 10.68461956 196.07870134 15.84879511 191 21 C185.50166514 26.5768291 180.00607216 32.07773614 174.05078125 37.171875 C169.67208202 41.0751726 165.61656403 45.32437479 161.5 49.5 C156.16601368 54.9105141 150.83955219 60.21172831 145.06835938 65.15429688 C140.68533919 69.06549052 136.62254675 73.31830624 132.5 77.5 C122.48287532 87.66084239 122.48287532 87.66084239 118.03125 91.46875 C112.72942959 96.00933836 107.89693613 101.03315519 103 106 C97.37577322 111.70451825 91.75538795 117.34478618 85.66259766 122.55566406 C83.5531779 124.3881644 81.61762404 126.35591233 79.6875 128.375 C72.75631329 135.38998344 65.0388048 141.32321439 57 147 C56.79020508 146.24420654 56.58041016 145.48841309 56.36425781 144.7097168 C43.22113124 97.67690453 25.93182742 52.91637139 3.65625 9.38549805 C3.17671875 8.44359619 2.6971875 7.50169434 2.203125 6.53125 C1.77676758 5.70173828 1.35041016 4.87222656 0.91113281 4.01757812 C0 2 0 2 0 0 Z " fill="#0090A5" transform="translate(1837,938)"/>
</svg>
